<svg width="148" height="148" xmlns="http://www.w3.org/2000/svg" xmlns:xlink="http://www.w3.org/1999/xlink" overflow="hidden"><defs><clipPath id="clip0"><rect x="517" y="255" width="148" height="148"/></clipPath></defs><g clip-path="url(#clip0)" transform="translate(-517 -255)"><path d="M529.662 325.009C530.984 325.009 532.092 325.456 532.986 326.35 533.88 327.245 534.328 328.353 534.328 329.675 534.328 331.464 533.55 332.824 531.995 333.758L531.995 386.368C533.55 387.302 534.328 388.624 534.328 390.335 534.328 391.657 533.88 392.765 532.986 393.659 532.092 394.554 530.984 395.001 529.662 395.001 528.341 395.001 527.233 394.554 526.339 393.659 525.444 392.765 524.997 391.657 524.997 390.335 524.997 388.624 525.775 387.302 527.33 386.368L527.33 333.758C525.775 332.824 524.997 331.464 524.997 329.675 524.997 328.353 525.444 327.245 526.339 326.35 527.233 325.456 528.341 325.009 529.662 325.009ZM522.665 322.676 522.665 397.334 536.66 397.334 536.66 322.676ZM589.36 318.009 640.675 318.009C645.34 318.009 649.169 318.359 652.163 319.059 655.156 319.759 657.527 320.984 659.277 322.734 661.026 324.484 662.251 326.856 662.95 329.85 663.65 332.844 664 336.674 664 341.34L664 378.669C664 383.335 663.65 387.185 662.95 390.218 662.251 393.251 661.026 395.642 659.277 397.392 657.527 399.142 655.156 400.347 652.163 401.008 649.169 401.67 645.34 402 640.675 402L580.03 402C575.365 402 571.517 401.67 568.484 401.008 565.452 400.347 563.061 399.142 561.312 397.392 559.563 395.642 558.358 393.251 557.697 390.218 557.036 387.185 556.705 383.335 556.705 378.669L556.705 333.758C555.15 332.824 554.373 331.464 554.373 329.675 554.373 328.353 554.82 327.245 555.714 326.35 556.608 325.456 557.716 325.009 559.038 325.009 560.36 325.009 561.468 325.456 562.362 326.35 563.256 327.245 563.703 328.353 563.703 329.675 563.703 331.464 562.925 332.824 561.37 333.758L561.37 378.669C561.37 382.48 561.623 385.591 562.128 388.002 562.634 390.412 563.586 392.318 564.986 393.718 566.385 395.117 568.29 396.07 570.7 396.576 573.111 397.081 576.221 397.334 580.03 397.334L640.675 397.334C644.485 397.334 647.595 397.081 650.005 396.576 652.415 396.07 654.32 395.117 655.72 393.718 657.119 392.318 658.072 390.412 658.577 388.002 659.082 385.591 659.335 382.48 659.335 378.669L659.335 341.34C659.335 337.53 659.082 334.419 658.577 332.008 658.072 329.597 657.119 327.692 655.72 326.292 654.32 324.892 652.415 323.939 650.005 323.434 647.595 322.928 644.485 322.676 640.675 322.676L589.36 322.676C585.551 322.676 582.441 322.928 580.03 323.434 577.62 323.939 575.715 324.892 574.316 326.292 572.916 327.692 571.964 329.597 571.458 332.008 570.953 334.419 570.7 337.53 570.7 341.34L570.7 378.669C570.7 380.691 570.797 382.324 570.992 383.569 571.186 384.813 571.614 385.766 572.275 386.427 572.936 387.088 573.888 387.516 575.132 387.71 576.376 387.904 578.009 388.002 580.03 388.002L640.675 388.002C642.697 388.002 644.329 387.904 645.573 387.71 646.817 387.516 647.77 387.088 648.431 386.427 649.091 385.766 649.519 384.813 649.714 383.569 649.908 382.324 650.005 380.691 650.005 378.669L650.005 341.34C650.005 339.318 649.908 337.685 649.714 336.441 649.519 335.196 649.091 334.244 648.431 333.583 647.77 332.922 646.817 332.494 645.573 332.3 644.329 332.105 642.697 332.008 640.675 332.008L589.36 332.008C587.339 332.008 585.706 332.105 584.462 332.3 583.218 332.494 582.266 332.922 581.605 333.583 580.944 334.244 580.516 335.196 580.322 336.441 580.127 337.685 580.03 339.318 580.03 341.34L580.03 374.003C580.03 375.092 580.069 375.947 580.147 376.569 580.225 377.192 580.419 377.658 580.73 377.969 581.041 378.28 581.508 378.475 582.13 378.553 582.752 378.63 583.607 378.669 584.695 378.669L636.01 378.669C637.099 378.669 637.954 378.63 638.576 378.553 639.198 378.475 639.664 378.28 639.975 377.969 640.286 377.658 640.481 377.192 640.558 376.569 640.636 375.947 640.675 375.092 640.675 374.003L640.675 346.006C640.675 343.829 640.442 342.507 639.975 342.04 639.509 341.574 638.187 341.34 636.01 341.34L590.993 341.34C590.06 342.896 588.738 343.673 587.028 343.673 585.706 343.673 584.598 343.226 583.704 342.332 582.81 341.437 582.363 340.329 582.363 339.007 582.363 337.685 582.81 336.577 583.704 335.682 584.598 334.788 585.706 334.341 587.028 334.341 588.738 334.341 590.06 335.119 590.993 336.674L640.675 336.674C643.785 336.674 645.34 338.229 645.34 341.34L645.34 378.669C645.34 381.78 643.785 383.335 640.675 383.335L580.03 383.335C576.92 383.335 575.365 381.78 575.365 378.669L575.365 341.34C575.365 338.463 575.54 336.11 575.89 334.283 576.24 332.455 576.94 331.016 577.989 329.967 579.039 328.917 580.458 328.217 582.246 327.867 584.034 327.517 586.406 327.342 589.36 327.342L640.675 327.342C643.552 327.342 645.904 327.517 647.731 327.867 649.558 328.217 650.996 328.917 652.046 329.967 653.096 331.016 653.795 332.455 654.145 334.283 654.495 336.11 654.67 338.463 654.67 341.34L654.67 378.669C654.67 381.625 654.495 383.996 654.145 385.785 653.795 387.574 653.096 388.993 652.046 390.043 650.996 391.093 649.558 391.793 647.731 392.143 645.904 392.493 643.552 392.668 640.675 392.668L580.03 392.668C577.076 392.668 574.704 392.493 572.916 392.143 571.128 391.793 569.709 391.093 568.659 390.043 567.61 388.993 566.91 387.574 566.56 385.785 566.21 383.996 566.035 381.625 566.035 378.669L566.035 341.34C566.035 336.674 566.366 332.844 567.027 329.85 567.688 326.856 568.893 324.484 570.642 322.734 572.391 320.984 574.782 319.759 577.814 319.059 580.847 318.359 584.695 318.009 589.36 318.009ZM518 318.009 541.325 318.009 541.325 402 518 402ZM610.533 275.064C609.586 275.105 608.865 275.535 608.372 276.355 607.878 277.176 607.544 278.143 607.37 279.256 607.196 280.369 607.115 281.385 607.126 282.304 607.115 283.222 607.196 284.234 607.37 285.339 607.544 286.443 607.878 287.402 608.372 288.213 608.865 289.025 609.586 289.451 610.533 289.491 611.471 289.451 612.183 289.025 612.668 288.213 613.154 287.402 613.481 286.443 613.65 285.339 613.819 284.234 613.898 283.222 613.887 282.304 613.898 281.385 613.819 280.369 613.65 279.256 613.481 278.143 613.154 277.176 612.668 276.355 612.183 275.535 611.471 275.105 610.533 275.064ZM661.103 272.885 664 272.885 664 291.723 660.81 291.723 660.81 276.77 657.086 279.83 655.223 277.621ZM534.629 272.885 539.069 272.885 547.825 286.99 547.878 286.99 547.878 272.885 551.227 272.885 551.227 291.723 546.973 291.723 538.031 277.166 537.978 277.166 537.978 291.723 534.629 291.723ZM518 272.885 521.349 272.885 521.349 291.723 518 291.723ZM635.952 272.406C637.059 272.407 638.087 272.615 639.033 273.029 639.98 273.444 640.745 274.059 641.327 274.876 641.911 275.693 642.211 276.705 642.227 277.912 642.206 279.109 641.91 280.162 641.34 281.07 640.77 281.978 640.056 282.824 639.197 283.608L633.77 288.799 642.254 288.799 642.254 291.723 629.726 291.723 629.726 288.799 636.989 281.665C637.582 281.102 638.047 280.525 638.386 279.935 638.725 279.345 638.898 278.688 638.905 277.965 638.886 277.076 638.598 276.373 638.04 275.856 637.483 275.339 636.769 275.075 635.899 275.064 634.989 275.083 634.261 275.391 633.714 275.985 633.166 276.581 632.831 277.347 632.706 278.285L629.593 277.806C629.805 276.218 630.479 274.929 631.615 273.938 632.751 272.947 634.197 272.436 635.952 272.406ZM610.533 272.406C612.672 272.437 614.307 273.325 615.441 275.069 616.575 276.813 617.146 279.225 617.156 282.304 617.146 285.383 616.575 287.795 615.441 289.539 614.307 291.283 612.672 292.171 610.533 292.202 608.38 292.171 606.732 291.283 605.588 289.539 604.444 287.795 603.867 285.383 603.857 282.304 603.867 279.225 604.444 276.813 605.588 275.069 606.732 273.325 608.38 272.437 610.533 272.406ZM584.958 272.406C586.065 272.407 587.092 272.615 588.039 273.029 588.985 273.444 589.75 274.059 590.333 274.876 590.916 275.693 591.216 276.705 591.233 277.912 591.212 279.109 590.916 280.162 590.346 281.07 589.776 281.978 589.062 282.824 588.203 283.608L582.776 288.799 591.26 288.799 591.26 291.723 578.732 291.723 578.732 288.799 585.995 281.665C586.587 281.102 587.053 280.525 587.392 279.935 587.731 279.345 587.904 278.688 587.911 277.965 587.892 277.076 587.604 276.373 587.046 275.856 586.488 275.339 585.775 275.075 584.904 275.064 583.995 275.083 583.266 275.391 582.719 275.985 582.172 276.581 581.836 277.347 581.712 278.285L578.599 277.806C578.811 276.218 579.484 274.929 580.621 273.938 581.757 272.947 583.203 272.436 584.958 272.406ZM576.066 262.136 576.066 265.192 577.742 265.192C578.074 265.198 578.419 265.164 578.778 265.091 579.136 265.017 579.44 264.867 579.691 264.64 579.942 264.413 580.074 264.073 580.085 263.619 580.085 263.077 579.896 262.693 579.517 262.466 579.139 262.239 578.572 262.129 577.816 262.136ZM562.806 258.491 561.161 262.76 564.421 262.76ZM656.352 257.866 656.352 265.133 657.909 265.133C658.566 265.14 659.205 265.038 659.826 264.824 660.447 264.61 660.961 264.239 661.368 263.711 661.775 263.183 661.986 262.451 662.001 261.514 661.986 260.521 661.775 259.76 661.368 259.23 660.961 258.701 660.447 258.338 659.826 258.143 659.205 257.948 658.566 257.855 657.909 257.866ZM576.066 257.807 576.066 260.537 577.727 260.537C578.352 260.534 578.826 260.41 579.151 260.164 579.475 259.918 579.638 259.568 579.64 259.112 579.641 258.649 579.472 258.315 579.13 258.109 578.789 257.904 578.267 257.803 577.564 257.807ZM654.486 256.267 658.205 256.267C659.14 256.259 660.047 256.42 660.927 256.751 661.806 257.082 662.533 257.632 663.107 258.401 663.682 259.17 663.979 260.208 664 261.514 663.979 262.737 663.682 263.735 663.107 264.509 662.533 265.283 661.806 265.853 660.927 266.218 660.047 266.584 659.14 266.765 658.205 266.762L654.486 266.762ZM640.282 256.267 647.231 256.267 647.231 257.896 642.147 257.896 642.147 260.566 646.965 260.566 646.965 262.136 642.147 262.136 642.147 265.103 647.498 265.103 647.498 266.762 640.282 266.762ZM624.225 256.267 626.09 256.267 626.09 260.507 630.998 260.507 630.998 256.267 632.864 256.267 632.864 266.762 630.998 266.762 630.998 262.106 626.09 262.106 626.09 266.762 624.225 266.762ZM601.374 256.267 603.24 256.267 603.24 266.762 601.374 266.762ZM589.022 256.267 590.888 256.267 590.888 265.103 595.349 265.103 595.349 266.762 589.022 266.762ZM574.2 256.267 578.291 256.267C578.83 256.264 579.342 256.35 579.829 256.526 580.316 256.701 580.714 256.983 581.025 257.371 581.335 257.759 581.495 258.27 581.506 258.905 581.497 259.499 581.329 259.99 581 260.377 580.672 260.763 580.233 261.039 579.684 261.203L579.684 261.233C580.355 261.326 580.898 261.584 581.312 262.009 581.725 262.433 581.938 263 581.95 263.708 581.938 264.465 581.742 265.067 581.362 265.515 580.982 265.962 580.492 266.283 579.892 266.477 579.291 266.671 578.654 266.766 577.979 266.762L574.2 266.762ZM562.05 256.267 563.666 256.267 568.186 266.762 566.052 266.762 565.074 264.36 560.524 264.36 559.575 266.762 557.486 266.762ZM544.695 256.267 552.993 256.267 552.993 257.896 549.777 257.896 549.777 266.762 547.911 266.762 547.911 257.896 544.695 257.896ZM518 256.267 524.95 256.267 524.95 257.896 519.866 257.896 519.866 260.566 524.683 260.566 524.683 262.136 519.866 262.136 519.866 265.103 525.217 265.103 525.217 266.762 518 266.762ZM614.15 256C614.688 256 615.228 256.093 615.771 256.279 616.314 256.466 616.791 256.748 617.202 257.125L615.988 258.459C615.779 258.195 615.5 257.979 615.153 257.812 614.804 257.646 614.441 257.56 614.061 257.555 613.607 257.551 613.191 257.663 612.811 257.89 612.432 258.118 612.23 258.486 612.207 258.993 612.216 259.459 612.402 259.803 612.763 260.024 613.125 260.245 613.607 260.44 614.209 260.61 614.672 260.74 615.137 260.914 615.604 261.132 616.071 261.35 616.464 261.659 616.781 262.06 617.098 262.46 617.263 263 617.276 263.679 617.267 264.43 617.089 265.053 616.743 265.549 616.396 266.045 615.936 266.415 615.36 266.661 614.785 266.906 614.149 267.029 613.453 267.028 612.758 267.027 612.091 266.9 611.452 266.647 610.813 266.394 610.28 266.023 609.852 265.533L611.185 264.287C611.456 264.647 611.8 264.929 612.217 265.133 612.634 265.336 613.056 265.44 613.483 265.444 613.944 265.45 614.37 265.331 614.76 265.088 615.149 264.845 615.356 264.445 615.381 263.887 615.363 263.357 615.125 262.967 614.667 262.719 614.209 262.471 613.641 262.252 612.963 262.063 612.529 261.936 612.111 261.764 611.709 261.547 611.307 261.33 610.976 261.026 610.716 260.636 610.456 260.246 610.321 259.728 610.312 259.082 610.324 258.372 610.515 257.79 610.885 257.334 611.255 256.879 611.73 256.543 612.311 256.325 612.892 256.107 613.505 255.998 614.15 256ZM535.717 256C536.254 256 536.795 256.093 537.338 256.279 537.881 256.466 538.358 256.748 538.769 257.125L537.555 258.459C537.346 258.195 537.067 257.979 536.719 257.812 536.371 257.646 536.007 257.56 535.628 257.555 535.174 257.551 534.758 257.663 534.378 257.89 533.999 258.118 533.797 258.486 533.774 258.993 533.783 259.459 533.968 259.803 534.33 260.024 534.691 260.245 535.173 260.44 535.776 260.61 536.239 260.74 536.703 260.914 537.171 261.132 537.638 261.35 538.03 261.659 538.348 262.06 538.665 262.46 538.83 263 538.843 263.679 538.834 264.43 538.656 265.053 538.31 265.549 537.963 266.045 537.502 266.415 536.927 266.661 536.351 266.906 535.716 267.029 535.02 267.028 534.325 267.027 533.658 266.9 533.019 266.647 532.38 266.394 531.847 266.023 531.419 265.533L532.752 264.287C533.023 264.647 533.366 264.929 533.784 265.133 534.201 265.336 534.622 265.44 535.049 265.444 535.511 265.45 535.937 265.331 536.326 265.088 536.716 264.845 536.923 264.445 536.948 263.887 536.929 263.357 536.691 262.967 536.234 262.719 535.776 262.471 535.208 262.252 534.53 262.063 534.096 261.936 533.678 261.764 533.276 261.547 532.874 261.33 532.543 261.026 532.283 260.636 532.022 260.246 531.888 259.728 531.878 259.082 531.891 258.372 532.082 257.79 532.452 257.334 532.821 256.879 533.297 256.543 533.878 256.325 534.459 256.107 535.072 255.998 535.717 256Z" fill="#FA2400" fill-rule="evenodd"/></g></svg>