<?xml version="1.0" encoding="iso-8859-1"?>
<!-- Generator: Adobe Illustrator 19.0.0, SVG Export Plug-In . SVG Version: 6.00 Build 0)  -->
<svg version="1.1" id="Capa_1" xmlns="http://www.w3.org/2000/svg" xmlns:xlink="http://www.w3.org/1999/xlink" x="0px" y="0px"
	 viewBox="0 0 480 480" style="enable-background:new 0 0 480 480;" xml:space="preserve">
<g>
	<g>
		<path d="M64,280H32c-4.418,0-8,3.582-8,8v32c0,4.418,3.582,8,8,8h32c4.418,0,8-3.582,8-8v-32C72,283.582,68.418,280,64,280z
			 M56,312H40v-16h16V312z"/>
	</g>
</g>
<g>
	<g>
		<path d="M64,344H32c-4.418,0-8,3.582-8,8v32c0,4.418,3.582,8,8,8h32c4.418,0,8-3.582,8-8v-32C72,347.582,68.418,344,64,344z
			 M56,376H40v-16h16V376z"/>
	</g>
</g>
<g>
	<g>
		<path d="M128,344H96c-4.418,0-8,3.582-8,8v32c0,4.418,3.582,8,8,8h32c4.418,0,8-3.582,8-8v-32C136,347.582,132.418,344,128,344z
			 M120,376h-16v-16h16V376z"/>
	</g>
</g>
<g>
	<g>
		<path d="M128,280H96c-4.418,0-8,3.582-8,8v32c0,4.418,3.582,8,8,8h32c4.418,0,8-3.582,8-8v-32C136,283.582,132.418,280,128,280z
			 M120,312h-16v-16h16V312z"/>
	</g>
</g>
<g id="SVGCleanerId_0">
	<g>
		<path d="M192,280h-32c-4.418,0-8,3.582-8,8v32c0,4.418,3.582,8,8,8h32c4.418,0,8-3.582,8-8v-32C200,283.582,196.418,280,192,280z
			 M184,312h-16v-16h16V312z"/>
	</g>
</g>
<g>
	<g>
		<path d="M192,280h-32c-4.418,0-8,3.582-8,8v32c0,4.418,3.582,8,8,8h32c4.418,0,8-3.582,8-8v-32C200,283.582,196.418,280,192,280z
			 M184,312h-16v-16h16V312z"/>
	</g>
</g>
<g id="SVGCleanerId_1">
	<g>
		<path d="M192,344h-32c-4.418,0-8,3.582-8,8v32c0,4.418,3.582,8,8,8h32c4.418,0,8-3.582,8-8v-32C200,347.582,196.418,344,192,344z
			 M184,376h-16v-16h16V376z"/>
	</g>
</g>
<g>
	<g>
		<path d="M192,344h-32c-4.418,0-8,3.582-8,8v32c0,4.418,3.582,8,8,8h32c4.418,0,8-3.582,8-8v-32C200,347.582,196.418,344,192,344z
			 M184,376h-16v-16h16V376z"/>
	</g>
</g>
<g>
	<g>
		<path d="M256,280h-32c-4.418,0-8,3.582-8,8v32c0,4.418,3.582,8,8,8h32c4.418,0,8-3.582,8-8v-32C264,283.582,260.418,280,256,280z
			 M248,312h-16v-16h16V312z"/>
	</g>
</g>
<g>
	<g>
		<path d="M256,344h-32c-4.418,0-8,3.582-8,8v32c0,4.418,3.582,8,8,8h32c4.418,0,8-3.582,8-8v-32C264,347.582,260.418,344,256,344z
			 M248,376h-16v-16h16V376z"/>
	</g>
</g>
<g>
	<g>
		<path d="M320,344h-32c-4.418,0-8,3.582-8,8v32c0,4.418,3.582,8,8,8h32c4.418,0,8-3.582,8-8v-32C328,347.582,324.418,344,320,344z
			 M312,376h-16v-16h16V376z"/>
	</g>
</g>
<g>
	<g>
		<path d="M320,280h-32c-4.418,0-8,3.582-8,8v32c0,4.418,3.582,8,8,8h32c4.418,0,8-3.582,8-8v-32C328,283.582,324.418,280,320,280z
			 M312,312h-16v-16h16V312z"/>
	</g>
</g>
<g id="SVGCleanerId_2">
	<g>
		<path d="M384,280h-32c-4.418,0-8,3.582-8,8v32c0,4.418,3.582,8,8,8h32c4.418,0,8-3.582,8-8v-32C392,283.582,388.418,280,384,280z
			 M376,312h-16v-16h16V312z"/>
	</g>
</g>
<g>
	<g>
		<path d="M384,280h-32c-4.418,0-8,3.582-8,8v32c0,4.418,3.582,8,8,8h32c4.418,0,8-3.582,8-8v-32C392,283.582,388.418,280,384,280z
			 M376,312h-16v-16h16V312z"/>
	</g>
</g>
<g id="SVGCleanerId_3">
	<g>
		<path d="M384,344h-32c-4.418,0-8,3.582-8,8v32c0,4.418,3.582,8,8,8h32c4.418,0,8-3.582,8-8v-32C392,347.582,388.418,344,384,344z
			 M376,376h-16v-16h16V376z"/>
	</g>
</g>
<g>
	<g>
		<path d="M384,344h-32c-4.418,0-8,3.582-8,8v32c0,4.418,3.582,8,8,8h32c4.418,0,8-3.582,8-8v-32C392,347.582,388.418,344,384,344z
			 M376,376h-16v-16h16V376z"/>
	</g>
</g>
<g id="SVGCleanerId_4">
	<g>
		<path d="M448,280h-32c-4.418,0-8,3.582-8,8v32c0,4.418,3.582,8,8,8h32c4.418,0,8-3.582,8-8v-32C456,283.582,452.418,280,448,280z
			 M440,312h-16v-16h16V312z"/>
	</g>
</g>
<g>
	<g>
		<path d="M448,280h-32c-4.418,0-8,3.582-8,8v32c0,4.418,3.582,8,8,8h32c4.418,0,8-3.582,8-8v-32C456,283.582,452.418,280,448,280z
			 M440,312h-16v-16h16V312z"/>
	</g>
</g>
<g id="SVGCleanerId_5">
	<g>
		<path d="M448,344h-32c-4.418,0-8,3.582-8,8v32c0,4.418,3.582,8,8,8h32c4.418,0,8-3.582,8-8v-32C456,347.582,452.418,344,448,344z
			 M440,376h-16v-16h16V376z"/>
	</g>
</g>
<g>
	<g>
		<path d="M448,344h-32c-4.418,0-8,3.582-8,8v32c0,4.418,3.582,8,8,8h32c4.418,0,8-3.582,8-8v-32C456,347.582,452.418,344,448,344z
			 M440,376h-16v-16h16V376z"/>
	</g>
</g>
<g>
	<g>
		<path d="M64,408H32c-4.418,0-8,3.582-8,8v32c0,4.418,3.582,8,8,8h32c4.418,0,8-3.582,8-8v-32C72,411.582,68.418,408,64,408z
			 M56,440H40v-16h16V440z"/>
	</g>
</g>
<g>
	<g>
		<path d="M128,408H96c-4.418,0-8,3.582-8,8v32c0,4.418,3.582,8,8,8h32c4.418,0,8-3.582,8-8v-32C136,411.582,132.418,408,128,408z
			 M120,440h-16v-16h16V440z"/>
	</g>
</g>
<g id="SVGCleanerId_6">
	<g>
		<path d="M192,408h-32c-4.418,0-8,3.582-8,8v32c0,4.418,3.582,8,8,8h32c4.418,0,8-3.582,8-8v-32C200,411.582,196.418,408,192,408z
			 M184,440h-16v-16h16V440z"/>
	</g>
</g>
<g>
	<g>
		<path d="M192,408h-32c-4.418,0-8,3.582-8,8v32c0,4.418,3.582,8,8,8h32c4.418,0,8-3.582,8-8v-32C200,411.582,196.418,408,192,408z
			 M184,440h-16v-16h16V440z"/>
	</g>
</g>
<g>
	<g>
		<path d="M256,408h-32c-4.418,0-8,3.582-8,8v32c0,4.418,3.582,8,8,8h32c4.418,0,8-3.582,8-8v-32C264,411.582,260.418,408,256,408z
			 M248,440h-16v-16h16V440z"/>
	</g>
</g>
<g>
	<g>
		<path d="M320,408h-32c-4.418,0-8,3.582-8,8v32c0,4.418,3.582,8,8,8h32c4.418,0,8-3.582,8-8v-32C328,411.582,324.418,408,320,408z
			 M312,440h-16v-16h16V440z"/>
	</g>
</g>
<g id="SVGCleanerId_7">
	<g>
		<path d="M384,408h-32c-4.418,0-8,3.582-8,8v32c0,4.418,3.582,8,8,8h32c4.418,0,8-3.582,8-8v-32C392,411.582,388.418,408,384,408z
			 M376,440h-16v-16h16V440z"/>
	</g>
</g>
<g>
	<g>
		<path d="M384,408h-32c-4.418,0-8,3.582-8,8v32c0,4.418,3.582,8,8,8h32c4.418,0,8-3.582,8-8v-32C392,411.582,388.418,408,384,408z
			 M376,440h-16v-16h16V440z"/>
	</g>
</g>
<g id="SVGCleanerId_8">
	<g>
		<path d="M448,408h-32c-4.418,0-8,3.582-8,8v32c0,4.418,3.582,8,8,8h32c4.418,0,8-3.582,8-8v-32C456,411.582,452.418,408,448,408z
			 M440,440h-16v-16h16V440z"/>
	</g>
</g>
<g>
	<g>
		<path d="M448,408h-32c-4.418,0-8,3.582-8,8v32c0,4.418,3.582,8,8,8h32c4.418,0,8-3.582,8-8v-32C456,411.582,452.418,408,448,408z
			 M440,440h-16v-16h16V440z"/>
	</g>
</g>
<g>
	<g>
		<path d="M472,256H248v-8c0-4.418,3.582-8,8-8h168c30.928,0,56-25.072,56-56c0-30.928-25.072-56-56-56H56
			c-22.091,0-40-17.909-40-40s17.909-40,40-40h168c13.255,0,24-10.745,24-24V0h-16v24c0,4.418-3.582,8-8,8H56
			C25.072,32,0,57.072,0,88c0,30.928,25.072,56,56,56h368c22.091,0,40,17.909,40,40s-17.909,40-40,40H256c-13.255,0-24,10.745-24,24
			v8H8c-4.418,0-8,3.582-8,8v208c0,4.418,3.582,8,8,8h464c4.418,0,8-3.582,8-8V264C480,259.582,476.418,256,472,256z M464,464H16
			V272h448V464z"/>
	</g>
</g>
<g>
</g>
<g>
</g>
<g>
</g>
<g>
</g>
<g>
</g>
<g>
</g>
<g>
</g>
<g>
</g>
<g>
</g>
<g>
</g>
<g>
</g>
<g>
</g>
<g>
</g>
<g>
</g>
<g>
</g>
</svg>
