<svg width="246" height="107" xmlns="http://www.w3.org/2000/svg" xmlns:xlink="http://www.w3.org/1999/xlink" overflow="hidden"><defs><clipPath id="clip0"><rect x="517" y="296" width="246" height="107"/></clipPath><linearGradient x1="720" y1="318" x2="720" y2="402" gradientUnits="userSpaceOnUse" spreadMethod="reflect" id="fill1"><stop offset="0"/><stop offset="0.83"/><stop offset="1"/></linearGradient></defs><g clip-path="url(#clip0)" transform="translate(-517 -296)"><path d="M685.309 383.499C684.418 383.499 683.796 383.749 683.444 384.249 683.091 384.749 682.914 385.439 682.914 386.319L682.914 395.971C682.914 396.833 683.099 397.51 683.469 398.002 683.839 398.494 684.452 398.74 685.309 398.74 686.166 398.74 686.783 398.49 687.161 397.989 687.539 397.489 687.728 396.816 687.728 395.971L687.728 386.319C687.728 385.439 687.548 384.749 687.186 384.249 686.825 383.749 686.199 383.499 685.309 383.499ZM718.681 380.652 722.341 380.652 722.341 401.612 718.681 401.612ZM699.092 380.652 702.603 380.652 707.843 393.306 707.868 393.306 707.868 380.652 711.503 380.652 711.503 401.638 708.003 401.638 702.778 388.984 702.753 388.984 702.753 401.612 699.092 401.612ZM753.582 380.238C754.382 380.238 755.125 380.337 755.808 380.536 756.492 380.734 757.084 381.036 757.584 381.442 758.085 381.847 758.477 382.356 758.76 382.968 759.044 383.581 759.186 384.301 759.186 385.129L759.186 386.19 755.525 386.19C755.525 385.189 755.362 384.491 755.036 384.094 754.71 383.697 754.238 383.499 753.619 383.499 753.001 383.499 752.525 383.68 752.19 384.042 751.856 384.404 751.689 384.93 751.689 385.621L751.689 386.138C751.689 386.707 751.78 387.164 751.964 387.509 752.147 387.854 752.505 388.191 753.038 388.519L756.837 390.796C757.72 391.33 758.379 391.969 758.812 392.711 759.245 393.452 759.461 394.358 759.461 395.428L759.461 396.902C759.461 397.748 759.299 398.49 758.974 399.128 758.648 399.766 758.214 400.297 757.672 400.719 757.13 401.142 756.509 401.461 755.809 401.677 755.108 401.892 754.374 402 753.607 402 752.856 402 752.131 401.901 751.43 401.702 750.73 401.504 750.113 401.206 749.579 400.81 749.045 400.413 748.62 399.908 748.303 399.296 747.986 398.684 747.828 397.963 747.828 397.135L747.828 396.204 751.488 396.204C751.488 397.101 751.685 397.748 752.078 398.144 752.47 398.541 752.984 398.74 753.619 398.74 754.255 398.74 754.777 398.554 755.187 398.183 755.596 397.812 755.801 397.299 755.801 396.644L755.801 395.945C755.801 395.445 755.705 394.988 755.512 394.574 755.32 394.16 754.94 393.78 754.372 393.435L750.561 391.158C749.625 390.606 748.969 389.963 748.592 389.23 748.216 388.497 748.028 387.647 748.028 386.681L748.028 385.31C748.028 384.534 748.17 383.835 748.453 383.214 748.737 382.593 749.125 382.063 749.617 381.623 750.109 381.183 750.693 380.842 751.368 380.601 752.043 380.359 752.781 380.238 753.582 380.238ZM736.125 380.238C737.445 380.238 738.498 380.437 739.284 380.833 740.07 381.23 740.667 381.718 741.077 382.295 741.486 382.873 741.754 383.481 741.879 384.12 742.004 384.758 742.067 385.31 742.067 385.776L742.067 387.07 738.407 387.07 738.407 386.19C738.407 385.879 738.373 385.564 738.306 385.245 738.238 384.926 738.121 384.637 737.953 384.378 737.785 384.12 737.554 383.908 737.259 383.745 736.965 383.581 736.591 383.499 736.137 383.499 735.616 383.499 735.205 383.589 734.902 383.77 734.599 383.951 734.368 384.176 734.209 384.443 734.049 384.711 733.948 385.008 733.906 385.336 733.864 385.664 733.843 385.983 733.843 386.293L733.843 396.307C733.843 396.601 733.877 396.889 733.944 397.174 734.011 397.459 734.133 397.722 734.31 397.963 734.486 398.205 734.721 398.399 735.016 398.546 735.31 398.692 735.684 398.766 736.137 398.766 736.574 398.766 736.936 398.688 737.221 398.533 737.507 398.377 737.738 398.179 737.915 397.938 738.091 397.696 738.218 397.424 738.293 397.122 738.369 396.82 738.407 396.523 738.407 396.23L738.407 395.479 742.067 395.479 742.067 396.747C742.067 397.42 741.967 398.071 741.766 398.701 741.566 399.33 741.231 399.891 740.763 400.383 740.295 400.874 739.685 401.267 738.933 401.56 738.181 401.853 737.245 402 736.125 402 735.022 402 734.09 401.845 733.329 401.534 732.569 401.224 731.954 400.823 731.487 400.331 731.018 399.839 730.684 399.279 730.484 398.649 730.283 398.019 730.183 397.377 730.183 396.721L730.183 385.802C730.183 385.319 730.245 384.758 730.371 384.12 730.496 383.481 730.764 382.873 731.173 382.295 731.583 381.718 732.18 381.23 732.966 380.833 733.751 380.437 734.804 380.238 736.125 380.238ZM685.346 380.238C686.216 380.238 687.018 380.346 687.753 380.562 688.489 380.777 689.124 381.109 689.659 381.558 690.194 382.006 690.616 382.571 690.925 383.253 691.234 383.934 691.389 384.749 691.389 385.698L691.389 396.566C691.389 397.515 691.226 398.334 690.9 399.024 690.574 399.714 690.135 400.279 689.584 400.719 689.032 401.159 688.388 401.482 687.653 401.69 686.918 401.897 686.14 402 685.321 402 684.502 402 683.725 401.897 682.989 401.69 682.254 401.482 681.61 401.159 681.059 400.719 680.507 400.279 680.068 399.714 679.743 399.024 679.417 398.334 679.254 397.515 679.254 396.566L679.254 385.724C679.254 384.758 679.408 383.93 679.718 383.24 680.027 382.55 680.457 381.981 681.009 381.532 681.56 381.084 682.208 380.756 682.952 380.549 683.696 380.342 684.494 380.238 685.346 380.238ZM752.899 353.185 752.899 358.619 754.804 358.619C755.64 358.619 756.229 358.438 756.572 358.075 756.914 357.713 757.086 357.109 757.086 356.264L757.086 355.566C757.086 355.152 757.057 354.794 756.998 354.492 756.94 354.19 756.827 353.94 756.66 353.741 756.492 353.543 756.263 353.401 755.97 353.314 755.677 353.228 755.297 353.185 754.829 353.185ZM749.238 349.925 755.832 349.925C757.537 349.925 758.782 350.308 759.568 351.076 760.354 351.844 760.746 353.056 760.746 354.712L760.746 356.704C760.746 357.135 760.675 357.541 760.533 357.92 760.391 358.3 760.203 358.636 759.969 358.929 759.735 359.223 759.464 359.477 759.154 359.693 758.845 359.908 758.515 360.068 758.164 360.171L758.164 360.197C758.598 360.387 758.962 360.711 759.255 361.168 759.547 361.625 759.81 362.319 760.044 363.251L762 370.884 758.289 370.884 756.534 364.053C756.4 363.57 756.267 363.177 756.133 362.876 755.999 362.574 755.849 362.336 755.682 362.164 755.515 361.991 755.318 361.879 755.092 361.827 754.867 361.776 754.604 361.75 754.303 361.75L752.899 361.75 752.899 370.884 749.238 370.884ZM734.539 349.925 746.198 349.925 746.198 353.366 742.211 353.366 742.211 370.884 738.551 370.884 738.551 353.366 734.539 353.366ZM706.928 349.925 717.684 349.925 717.684 353.366 710.588 353.34 710.588 358.567 716.781 358.567 716.781 361.827 710.588 361.827 710.588 367.469 717.734 367.469 717.734 370.884 706.928 370.884ZM693.608 349.925 697.268 349.925 697.268 367.469 703.486 367.469 703.486 370.884 693.608 370.884ZM679.504 349.925 690.261 349.925 690.261 353.366 683.165 353.34 683.165 358.567 689.358 358.567 689.358 361.827 683.165 361.827 683.165 367.469 690.311 367.469 690.311 370.884 679.504 370.884ZM726.723 349.51C728.043 349.51 729.096 349.709 729.882 350.106 730.667 350.502 731.265 350.99 731.675 351.568 732.084 352.146 732.351 352.754 732.477 353.392 732.602 354.03 732.665 354.582 732.665 355.048L732.665 356.342 729.004 356.342 729.004 355.462C729.004 355.152 728.971 354.837 728.903 354.518 728.836 354.198 728.718 353.909 728.55 353.651 728.382 353.392 728.151 353.181 727.857 353.017 727.563 352.853 727.189 352.771 726.735 352.771 726.214 352.771 725.802 352.861 725.5 353.043 725.197 353.224 724.966 353.448 724.807 353.715 724.647 353.983 724.546 354.28 724.504 354.608 724.462 354.936 724.441 355.255 724.441 355.566L724.441 365.58C724.441 365.873 724.475 366.162 724.542 366.446 724.609 366.731 724.731 366.994 724.907 367.236 725.084 367.477 725.319 367.671 725.613 367.818 725.908 367.964 726.281 368.038 726.735 368.038 727.172 368.038 727.534 367.96 727.819 367.805 728.105 367.65 728.336 367.451 728.513 367.21 728.689 366.968 728.815 366.696 728.891 366.395 728.966 366.093 729.004 365.795 729.004 365.502L729.004 364.752 732.665 364.752 732.665 366.019C732.665 366.692 732.565 367.343 732.364 367.973 732.163 368.603 731.829 369.163 731.361 369.655 730.893 370.147 730.283 370.539 729.531 370.832 728.779 371.126 727.843 371.272 726.723 371.272 725.62 371.272 724.688 371.117 723.927 370.806 723.167 370.496 722.552 370.095 722.084 369.603 721.616 369.112 721.282 368.551 721.081 367.921 720.881 367.292 720.78 366.649 720.78 365.994L720.78 355.074C720.78 354.591 720.843 354.03 720.968 353.392 721.094 352.754 721.361 352.146 721.771 351.568 722.18 350.99 722.778 350.502 723.563 350.106 724.349 349.709 725.402 349.51 726.723 349.51ZM713.503 323.227 711.572 332.594 715.434 332.594 713.528 323.227ZM746.436 321.26C745.717 321.26 745.136 321.476 744.694 321.907 744.251 322.339 744.029 322.96 744.029 323.77L744.029 333.81C744.029 334.673 744.234 335.341 744.643 335.816 745.053 336.29 745.659 336.527 746.461 336.527 747.263 336.527 747.865 336.29 748.266 335.816 748.668 335.341 748.868 334.673 748.868 333.81L748.868 323.77C748.868 322.977 748.638 322.36 748.179 321.92 747.719 321.48 747.138 321.26 746.436 321.26ZM755.506 318.388 759.167 318.388 759.167 339.348 755.506 339.348ZM724.165 318.388 727.675 318.388 732.916 331.042 732.941 331.042 732.941 318.388 736.576 318.388 736.576 339.374 733.076 339.374 727.851 326.72 727.826 326.72 727.826 339.348 724.165 339.348ZM710.946 318.388 716.086 318.388 720.574 339.348 716.838 339.348 716.086 335.699 710.921 335.699 710.193 339.348 706.458 339.348ZM692.574 318.388 696.234 318.388 696.234 333.707C696.234 334.552 696.422 335.225 696.798 335.725 697.174 336.225 697.789 336.475 698.641 336.475 699.494 336.475 700.112 336.225 700.497 335.725 700.881 335.225 701.073 334.552 701.073 333.707L701.048 318.388 704.709 318.388 704.709 334.302C704.709 335.251 704.546 336.07 704.22 336.76 703.894 337.45 703.455 338.015 702.904 338.455 702.352 338.895 701.708 339.218 700.973 339.425 700.237 339.632 699.46 339.736 698.641 339.736 697.822 339.736 697.045 339.632 696.309 339.425 695.574 339.218 694.93 338.895 694.379 338.455 693.827 338.015 693.388 337.45 693.062 336.76 692.737 336.07 692.574 335.251 692.574 334.302ZM684.72 318.388 688.38 318.388 688.38 334.095C688.38 334.561 688.351 335.113 688.293 335.751 688.234 336.389 688.038 337.006 687.705 337.601 687.371 338.196 686.842 338.701 686.117 339.115 685.391 339.529 684.362 339.736 683.027 339.736 682.044 339.736 681.231 339.563 680.589 339.218 679.947 338.873 679.434 338.438 679.051 337.912 678.667 337.385 678.396 336.808 678.238 336.178 678.079 335.548 678 334.94 678 334.354L678 332.956 681.585 332.956 681.61 334.095C681.61 334.733 681.723 335.289 681.949 335.764 682.175 336.238 682.58 336.475 683.165 336.475 683.733 336.475 684.135 336.238 684.368 335.764 684.602 335.289 684.72 334.733 684.72 334.095ZM746.449 318C747.336 318 748.153 318.108 748.898 318.323 749.644 318.539 750.284 318.871 750.82 319.32 751.356 319.768 751.775 320.329 752.077 321.002 752.378 321.674 752.529 322.459 752.529 323.356L752.529 334.38C752.529 335.104 752.441 335.721 752.265 336.23 752.089 336.739 751.892 337.148 751.675 337.459L753.883 339.71 751.75 341.884 749.213 339.322C748.777 339.477 748.32 339.594 747.843 339.671 747.366 339.749 746.901 339.788 746.449 339.788 745.611 339.788 744.824 339.68 744.087 339.464 743.35 339.249 742.705 338.921 742.152 338.481 741.6 338.041 741.164 337.485 740.846 336.812 740.528 336.139 740.368 335.337 740.368 334.405L740.368 323.356C740.368 322.459 740.519 321.674 740.821 321.002 741.122 320.329 741.541 319.768 742.077 319.32 742.613 318.871 743.254 318.539 743.999 318.323 744.744 318.108 745.561 318 746.449 318Z" fill="url(#fill1)" fill-rule="evenodd"/><path d="M529.662 325C530.984 325 532.092 325.447 532.986 326.342 533.88 327.236 534.328 328.345 534.328 329.667 534.328 331.456 533.55 332.817 531.995 333.75L531.995 386.367C533.55 387.3 534.328 388.622 534.328 390.333 534.328 391.656 533.88 392.764 532.986 393.658 532.092 394.553 530.984 395 529.662 395 528.341 395 527.233 394.553 526.339 393.658 525.444 392.764 524.997 391.656 524.997 390.333 524.997 388.622 525.775 387.3 527.33 386.367L527.33 333.75C525.775 332.817 524.997 331.456 524.997 329.667 524.997 328.345 525.444 327.236 526.339 326.342 527.233 325.447 528.341 325 529.662 325ZM522.665 322.667 522.665 397.333 536.66 397.333 536.66 322.667ZM589.36 318 640.675 318C645.34 318 649.169 318.35 652.163 319.05 655.156 319.75 657.527 320.975 659.277 322.725 661.026 324.475 662.251 326.847 662.95 329.842 663.65 332.836 664 336.667 664 341.333L664 378.667C664 383.333 663.65 387.183 662.95 390.217 662.251 393.25 661.026 395.642 659.277 397.392 657.527 399.142 655.156 400.347 652.163 401.008 649.169 401.669 645.34 402 640.675 402L580.03 402C575.365 402 571.517 401.669 568.484 401.008 565.452 400.347 563.061 399.142 561.312 397.392 559.563 395.642 558.358 393.25 557.697 390.217 557.036 387.183 556.705 383.333 556.705 378.667L556.705 333.75C555.15 332.817 554.373 331.456 554.373 329.667 554.373 328.345 554.82 327.236 555.714 326.342 556.608 325.447 557.716 325 559.038 325 560.36 325 561.468 325.447 562.362 326.342 563.256 327.236 563.703 328.345 563.703 329.667 563.703 331.456 562.925 332.817 561.37 333.75L561.37 378.667C561.37 382.478 561.623 385.589 562.128 388 562.634 390.411 563.586 392.317 564.986 393.717 566.385 395.117 568.29 396.069 570.7 396.575 573.111 397.081 576.221 397.333 580.03 397.333L640.675 397.333C644.485 397.333 647.595 397.081 650.005 396.575 652.415 396.069 654.32 395.117 655.72 393.717 657.119 392.317 658.072 390.411 658.577 388 659.082 385.589 659.335 382.478 659.335 378.667L659.335 341.333C659.335 337.522 659.082 334.411 658.577 332 658.072 329.589 657.119 327.683 655.72 326.283 654.32 324.883 652.415 323.931 650.005 323.425 647.595 322.919 644.485 322.667 640.675 322.667L589.36 322.667C585.551 322.667 582.441 322.919 580.03 323.425 577.62 323.931 575.715 324.883 574.316 326.283 572.916 327.683 571.964 329.589 571.458 332 570.953 334.411 570.7 337.522 570.7 341.333L570.7 378.667C570.7 380.689 570.797 382.322 570.992 383.567 571.186 384.811 571.614 385.764 572.275 386.425 572.936 387.086 573.888 387.514 575.132 387.708 576.376 387.903 578.009 388 580.03 388L640.675 388C642.697 388 644.329 387.903 645.573 387.708 646.817 387.514 647.77 387.086 648.431 386.425 649.091 385.764 649.519 384.811 649.714 383.567 649.908 382.322 650.005 380.689 650.005 378.667L650.005 341.333C650.005 339.311 649.908 337.678 649.714 336.433 649.519 335.189 649.091 334.236 648.431 333.575 647.77 332.914 646.817 332.486 645.573 332.292 644.329 332.097 642.697 332 640.675 332L589.36 332C587.339 332 585.706 332.097 584.462 332.292 583.218 332.486 582.266 332.914 581.605 333.575 580.944 334.236 580.516 335.189 580.322 336.433 580.127 337.678 580.03 339.311 580.03 341.333L580.03 374C580.03 375.089 580.069 375.944 580.147 376.567 580.225 377.189 580.419 377.656 580.73 377.967 581.041 378.278 581.508 378.472 582.13 378.55 582.752 378.628 583.607 378.667 584.695 378.667L636.01 378.667C637.099 378.667 637.954 378.628 638.576 378.55 639.198 378.472 639.664 378.278 639.975 377.967 640.286 377.656 640.481 377.189 640.558 376.567 640.636 375.944 640.675 375.089 640.675 374L640.675 346C640.675 343.822 640.442 342.5 639.975 342.033 639.509 341.567 638.187 341.333 636.01 341.333L590.993 341.333C590.06 342.889 588.738 343.667 587.028 343.667 585.706 343.667 584.598 343.219 583.704 342.325 582.81 341.431 582.363 340.322 582.363 339 582.363 337.678 582.81 336.569 583.704 335.675 584.598 334.781 585.706 334.333 587.028 334.333 588.738 334.333 590.06 335.111 590.993 336.667L640.675 336.667C643.785 336.667 645.34 338.222 645.34 341.333L645.34 378.667C645.34 381.778 643.785 383.333 640.675 383.333L580.03 383.333C576.92 383.333 575.365 381.778 575.365 378.667L575.365 341.333C575.365 338.456 575.54 336.103 575.89 334.275 576.24 332.447 576.94 331.008 577.989 329.958 579.039 328.908 580.458 328.208 582.246 327.858 584.034 327.508 586.406 327.333 589.36 327.333L640.675 327.333C643.552 327.333 645.904 327.508 647.731 327.858 649.558 328.208 650.996 328.908 652.046 329.958 653.096 331.008 653.795 332.447 654.145 334.275 654.495 336.103 654.67 338.456 654.67 341.333L654.67 378.667C654.67 381.622 654.495 383.994 654.145 385.783 653.795 387.572 653.096 388.992 652.046 390.042 650.996 391.092 649.558 391.792 647.731 392.142 645.904 392.492 643.552 392.667 640.675 392.667L580.03 392.667C577.076 392.667 574.704 392.492 572.916 392.142 571.128 391.792 569.709 391.092 568.659 390.042 567.61 388.992 566.91 387.572 566.56 385.783 566.21 383.994 566.035 381.622 566.035 378.667L566.035 341.333C566.035 336.667 566.366 332.836 567.027 329.842 567.688 326.847 568.893 324.475 570.642 322.725 572.391 320.975 574.782 319.75 577.814 319.05 580.847 318.35 584.695 318 589.36 318ZM518 318 541.325 318 541.325 402 518 402Z" fill="#FA2400" fill-rule="evenodd"/><path d="M576.718 302.12 576.718 305.168 578.412 305.168C578.748 305.174 579.098 305.141 579.46 305.067 579.822 304.994 580.13 304.844 580.384 304.618 580.638 304.392 580.77 304.052 580.782 303.6 580.782 303.059 580.59 302.676 580.208 302.449 579.826 302.223 579.252 302.113 578.487 302.12ZM563.309 298.484 561.646 302.743 564.943 302.743ZM657.905 297.861 657.905 305.109 659.48 305.109C660.144 305.117 660.791 305.014 661.419 304.801 662.047 304.588 662.567 304.218 662.978 303.691 663.389 303.164 663.603 302.434 663.618 301.5 663.603 300.51 663.389 299.751 662.978 299.222 662.567 298.694 662.047 298.332 661.419 298.138 660.791 297.943 660.144 297.851 659.48 297.861ZM576.718 297.802 576.718 300.525 578.397 300.525C579.029 300.522 579.509 300.398 579.837 300.153 580.165 299.908 580.33 299.559 580.332 299.104 580.333 298.642 580.162 298.309 579.816 298.104 579.471 297.899 578.943 297.798 578.232 297.802ZM731.879 297.477C731.346 297.5 730.94 297.739 730.662 298.195 730.384 298.65 730.195 299.188 730.097 299.806 729.999 300.425 729.953 300.989 729.96 301.5 729.953 302.01 729.999 302.572 730.097 303.186 730.195 303.8 730.384 304.332 730.662 304.784 730.94 305.235 731.346 305.471 731.879 305.494 732.408 305.471 732.809 305.235 733.082 304.784 733.356 304.332 733.54 303.8 733.635 303.186 733.731 302.572 733.775 302.01 733.769 301.5 733.775 300.989 733.731 300.425 733.635 299.806 733.54 299.188 733.356 298.65 733.082 298.195 732.809 297.739 732.408 297.5 731.879 297.477ZM760.368 296.266 762 296.266 762 306.734 760.203 306.734 760.203 298.425 758.105 300.125 757.056 298.898ZM689.118 296.266 691.62 296.266 696.552 304.104 696.582 304.104 696.582 296.266 698.469 296.266 698.469 306.734 696.073 306.734 691.035 298.645 691.005 298.645 691.005 306.734 689.118 306.734ZM679.75 296.266 681.637 296.266 681.637 306.734 679.75 306.734ZM656.019 296.266 659.779 296.266C660.725 296.258 661.642 296.419 662.531 296.749 663.421 297.079 664.156 297.628 664.736 298.395 665.317 299.162 665.618 300.197 665.639 301.5 665.618 302.719 665.317 303.715 664.736 304.487 664.156 305.259 663.421 305.828 662.531 306.192 661.642 306.557 660.725 306.737 659.779 306.734L656.019 306.734ZM641.655 296.266 648.682 296.266 648.682 297.891 643.541 297.891 643.541 300.555 648.413 300.555 648.413 302.12 643.541 302.12 643.541 305.079 648.952 305.079 648.952 306.734 641.655 306.734ZM625.417 296.266 627.304 296.266 627.304 300.495 632.267 300.495 632.267 296.266 634.154 296.266 634.154 306.734 632.267 306.734 632.267 302.091 627.304 302.091 627.304 306.734 625.417 306.734ZM602.31 296.266 604.197 296.266 604.197 306.734 602.31 306.734ZM589.82 296.266 591.706 296.266 591.706 305.079 596.218 305.079 596.218 306.734 589.82 306.734ZM574.831 296.266 578.967 296.266C579.512 296.263 580.031 296.349 580.523 296.524 581.015 296.7 581.418 296.981 581.732 297.367 582.046 297.754 582.208 298.264 582.219 298.897 582.21 299.49 582.04 299.98 581.708 300.366 581.375 300.751 580.932 301.026 580.377 301.19L580.377 301.219C581.055 301.312 581.604 301.57 582.022 301.993 582.441 302.417 582.656 302.982 582.668 303.689 582.656 304.443 582.458 305.044 582.074 305.49 581.69 305.937 581.194 306.257 580.586 306.45 579.979 306.644 579.334 306.738 578.652 306.734L574.831 306.734ZM562.545 296.266 564.178 296.266 568.749 306.734 566.591 306.734 565.602 304.338 561.001 304.338 560.042 306.734 557.929 306.734ZM544.994 296.266 553.386 296.266 553.386 297.891 550.133 297.891 550.133 306.734 548.247 306.734 548.247 297.891 544.994 297.891ZM518 296.266 525.028 296.266 525.028 297.891 519.887 297.891 519.887 300.555 524.758 300.555 524.758 302.12 519.887 302.12 519.887 305.079 525.297 305.079 525.297 306.734 518 306.734ZM746.199 296C746.823 296.001 747.402 296.116 747.935 296.346 748.468 296.577 748.899 296.919 749.227 297.373 749.556 297.826 749.725 298.389 749.734 299.06 749.722 299.725 749.556 300.31 749.235 300.814 748.914 301.319 748.511 301.789 748.027 302.225L744.97 305.109 749.749 305.109 749.749 306.734 742.692 306.734 742.692 305.109 746.784 301.145C747.117 300.832 747.379 300.512 747.57 300.184 747.762 299.856 747.859 299.491 747.863 299.089 747.852 298.595 747.69 298.204 747.376 297.917 747.062 297.63 746.659 297.483 746.169 297.477 745.657 297.488 745.246 297.658 744.938 297.989 744.63 298.32 744.441 298.746 744.37 299.267L742.617 299C742.736 298.118 743.116 297.402 743.756 296.851 744.396 296.301 745.21 296.017 746.199 296ZM731.879 296C733.084 296.018 734.006 296.511 734.644 297.48 735.283 298.449 735.605 299.789 735.61 301.5 735.605 303.211 735.283 304.551 734.644 305.52 734.006 306.489 733.084 306.982 731.879 307 730.667 306.982 729.738 306.489 729.094 305.52 728.449 304.551 728.124 303.211 728.118 301.5 728.124 299.789 728.449 298.449 729.094 297.48 729.738 296.511 730.667 296.018 731.879 296ZM717.471 296C718.095 296.001 718.674 296.116 719.207 296.346 719.74 296.577 720.171 296.919 720.5 297.373 720.828 297.826 720.997 298.389 721.007 299.06 720.994 299.725 720.828 300.31 720.507 300.814 720.186 301.319 719.783 301.789 719.3 302.225L716.242 305.109 721.022 305.109 721.022 306.734 713.964 306.734 713.964 305.109 718.056 301.145C718.389 300.832 718.652 300.512 718.843 300.184 719.034 299.856 719.131 299.491 719.135 299.089 719.124 298.595 718.962 298.204 718.648 297.917 718.334 297.63 717.931 297.483 717.441 297.477 716.929 297.488 716.518 297.658 716.21 297.989 715.902 298.32 715.713 298.746 715.643 299.267L713.889 299C714.008 298.118 714.388 297.402 715.028 296.851 715.668 296.301 716.483 296.017 717.471 296ZM615.229 296C615.773 296 616.32 296.093 616.869 296.279 617.418 296.465 617.9 296.746 618.316 297.123L617.088 298.453C616.877 298.189 616.595 297.974 616.243 297.808 615.891 297.642 615.523 297.556 615.139 297.551 614.681 297.547 614.259 297.658 613.876 297.886 613.492 298.113 613.288 298.479 613.265 298.986 613.274 299.45 613.461 299.793 613.827 300.014 614.193 300.234 614.68 300.429 615.289 300.598 615.757 300.728 616.227 300.902 616.7 301.119 617.172 301.336 617.569 301.644 617.89 302.044 618.211 302.444 618.378 302.982 618.391 303.659 618.382 304.408 618.202 305.03 617.852 305.524 617.501 306.019 617.035 306.389 616.453 306.633 615.871 306.878 615.228 307 614.524 307 613.822 306.999 613.147 306.872 612.501 306.62 611.855 306.367 611.316 305.997 610.883 305.508L612.232 304.266C612.505 304.625 612.853 304.906 613.275 305.109 613.696 305.312 614.123 305.416 614.554 305.42 615.022 305.425 615.452 305.307 615.846 305.065 616.24 304.822 616.449 304.423 616.474 303.867 616.456 303.338 616.215 302.95 615.752 302.702 615.29 302.454 614.715 302.236 614.029 302.047 613.591 301.921 613.168 301.75 612.761 301.533 612.355 301.316 612.02 301.013 611.757 300.624 611.494 300.235 611.357 299.718 611.348 299.074 611.36 298.366 611.554 297.785 611.928 297.331 612.302 296.877 612.782 296.541 613.37 296.324 613.957 296.107 614.577 295.999 615.229 296ZM535.915 296C536.459 296 537.006 296.093 537.555 296.279 538.104 296.465 538.586 296.746 539.002 297.123L537.774 298.453C537.563 298.189 537.281 297.974 536.929 297.808 536.577 297.642 536.209 297.556 535.825 297.551 535.367 297.547 534.946 297.658 534.562 297.886 534.178 298.113 533.975 298.479 533.951 298.986 533.96 299.45 534.148 299.793 534.513 300.014 534.879 300.234 535.366 300.429 535.975 300.598 536.443 300.728 536.913 300.902 537.386 301.119 537.858 301.336 538.255 301.644 538.576 302.044 538.897 302.444 539.064 302.982 539.077 303.659 539.068 304.408 538.888 305.03 538.538 305.524 538.187 306.019 537.721 306.389 537.139 306.633 536.557 306.878 535.915 307 535.211 307 534.508 306.999 533.833 306.872 533.187 306.62 532.541 306.367 532.002 305.997 531.57 305.508L532.918 304.266C533.191 304.625 533.539 304.906 533.961 305.109 534.382 305.312 534.809 305.416 535.241 305.42 535.708 305.425 536.138 305.307 536.532 305.065 536.926 304.822 537.135 304.423 537.16 303.867 537.142 303.338 536.901 302.95 536.438 302.702 535.976 302.454 535.401 302.236 534.716 302.047 534.277 301.921 533.854 301.75 533.448 301.533 533.041 301.316 532.706 301.013 532.443 300.624 532.18 300.235 532.043 299.718 532.034 299.074 532.047 298.366 532.24 297.785 532.614 297.331 532.988 296.877 533.469 296.541 534.056 296.324 534.643 296.107 535.263 295.999 535.915 296Z" fill="#FA2400" fill-rule="evenodd"/></g></svg>