<svg width="246" height="108" xmlns="http://www.w3.org/2000/svg" xmlns:xlink="http://www.w3.org/1999/xlink" overflow="hidden"><defs><clipPath id="clip0"><rect x="587" y="350" width="246" height="108"/></clipPath><linearGradient x1="710" y1="419" x2="710" y2="433" gradientUnits="userSpaceOnUse" spreadMethod="reflect" id="fill1"><stop offset="0"/><stop offset="0.83"/><stop offset="1"/></linearGradient></defs><g clip-path="url(#clip0)" transform="translate(-587 -350)"><path d="M588 367.834C588 357.984 595.984 350 605.834 350L815.166 350C825.016 350 833 357.984 833 367.834L833 439.166C833 449.016 825.016 457 815.166 457L605.834 457C595.984 457 588 449.016 588 439.166Z" fill="#FFFFFF" fill-rule="evenodd"/><path d="M699.999 376.945 695.913 388.043 703.907 388.043ZM782.193 370.382C778.087 370.382 775.008 372.41 772.956 376.468 772.245 377.88 771.89 379.59 771.89 381.599L771.89 381.718C771.89 385.597 773.548 388.739 776.864 391.146 778.502 392.18 780.199 392.697 781.956 392.697L782.904 392.697C787.226 392.697 790.384 390.231 792.378 385.298 792.693 383.986 792.851 382.832 792.851 381.838L792.851 381.241C792.851 377.045 790.838 373.783 786.812 371.456 785.351 370.74 783.811 370.382 782.193 370.382ZM807.157 361.193 819 361.193 819 402.959 807.157 402.959ZM722.269 361.193 734.112 361.193 745.954 382.076 745.954 361.193 757.797 361.193 757.797 402.959 745.954 402.959 734.112 382.076 734.112 402.959 722.269 402.959ZM694.462 361.193 705.121 361.193 721.701 402.959 709.147 402.959 707.045 396.993 692.627 396.993 690.436 402.959 677.883 402.959ZM642.686 361.193 654.174 361.193 654.174 382.554C654.174 387.426 655.121 390.41 657.016 391.504 658.2 392.538 659.858 393.055 661.99 393.055 665.404 393.055 667.733 391.424 668.977 388.162 669.214 386.969 669.332 385.975 669.332 385.179L669.332 361.193 680.938 361.193 680.938 383.747C680.938 391.822 678.451 397.43 673.477 400.573 670.398 402.8 666.411 403.914 661.516 403.914 652.634 403.914 646.792 400.255 643.989 392.935 643.12 390.529 642.686 387.824 642.686 384.821ZM627.646 361.193 639.252 361.193 639.252 383.747C639.252 391.822 636.765 397.43 631.791 400.573 628.712 402.8 624.725 403.914 619.83 403.914 610.948 403.914 605.105 400.255 602.303 392.935 601.434 390.529 601 387.824 601 384.821L601 382.076 612.487 382.076 612.487 382.554C612.487 387.426 613.435 390.41 615.33 391.504 616.514 392.538 618.172 393.055 620.304 393.055 623.718 393.055 626.047 391.424 627.291 388.162 627.528 386.969 627.646 385.975 627.646 385.179ZM782.371 360C788.509 360 793.744 362.128 798.077 366.384 802.409 370.64 804.576 375.772 804.576 381.778 804.576 387.486 802.612 392.408 798.684 396.545L803.687 401.587 795.338 410 788.233 402.84C786.377 403.317 784.423 403.556 782.371 403.556 776.232 403.556 770.997 401.428 766.664 397.172 762.332 392.916 760.166 387.784 760.166 381.778 760.166 375.772 762.332 370.64 766.664 366.384 770.997 362.128 776.232 360 782.371 360Z" fill="#FA2400" fill-rule="evenodd"/><path d="M646.218 426.878 651.681 426.878 651.681 428.745 646.218 428.745ZM681.465 421.403 681.465 430.616 682.624 430.616C684.219 430.616 685.402 430.235 686.171 429.472 686.941 428.71 687.326 427.546 687.326 425.981 687.326 424.44 686.956 423.292 686.217 422.537 685.478 421.781 684.349 421.403 682.83 421.403ZM754.563 421.346 754.563 425.766 757.859 425.766C758.642 425.766 759.219 425.592 759.589 425.243 759.958 424.894 760.143 424.348 760.143 423.604 760.143 422.881 759.952 422.324 759.569 421.933 759.186 421.541 758.616 421.346 757.859 421.346ZM769.869 421.192C768.704 421.192 767.785 421.606 767.113 422.433 766.44 423.261 766.104 424.449 766.104 426 766.104 427.536 766.441 428.724 767.115 429.565 767.788 430.406 768.706 430.827 769.869 430.827 771.03 430.827 771.947 430.406 772.622 429.563 773.296 428.721 773.633 427.533 773.633 426 773.633 424.452 773.297 423.263 772.624 422.435 771.951 421.607 771.032 421.192 769.869 421.192ZM633.727 419.23 636.078 419.23 636.078 424.923 641.713 424.923 641.713 419.23 644.064 419.23 644.064 432.808 641.713 432.808 641.713 427.096 636.078 427.096 636.078 432.808 633.727 432.808ZM601 419.23 603.351 419.23 603.351 424.923 608.986 424.923 608.986 419.23 611.337 419.23 611.337 432.808 608.986 432.808 608.986 427.096 603.351 427.096 603.351 432.808 601 432.808ZM792.345 419.211 794.696 419.211 794.696 432.808 792.345 432.808ZM778.251 419.211 780.974 419.211 786.819 429.373 786.819 419.211 789.188 419.211 789.188 432.808 786.409 432.808 780.602 422.593 780.602 432.808 778.251 432.808ZM752.213 419.211 757.953 419.211C759.354 419.211 760.461 419.603 761.274 420.387 762.087 421.172 762.494 422.244 762.494 423.604 762.494 424.615 762.256 425.468 761.781 426.163 761.306 426.858 760.675 427.317 759.888 427.541L762.588 432.828 760.063 432.828 757.644 427.863 754.563 427.863 754.563 432.808 752.213 432.808ZM739.724 419.211 750.455 419.211 750.455 421.326 746.275 421.326 746.275 432.808 743.924 432.808 743.924 421.326 739.724 421.326ZM716.858 419.211 725.752 419.211 725.752 421.326 719.209 421.326 719.209 424.942 725.077 424.942 725.077 427.058 719.209 427.058 719.209 430.674 725.752 430.674 725.752 432.808 716.858 432.808ZM707.064 419.211 709.415 419.211 709.415 430.693 714.945 430.693 714.945 432.808 707.064 432.808ZM695.598 419.211 704.491 419.211 704.491 421.326 697.948 421.326 697.948 424.942 703.816 424.942 703.816 427.058 697.948 427.058 697.948 430.674 704.491 430.674 704.491 432.808 695.598 432.808ZM679.115 419.211 682.868 419.211C685.073 419.211 686.762 419.804 687.935 420.991 689.109 422.177 689.695 423.873 689.695 426.077 689.695 428.229 689.102 429.889 687.914 431.057 686.727 432.224 685.039 432.808 682.849 432.808L679.115 432.808ZM665.021 419.211 667.744 419.211 673.588 429.373 673.588 419.211 675.958 419.211 675.958 432.808 673.178 432.808 667.371 422.593 667.371 432.808 665.021 432.808ZM653.554 419.211 662.448 419.211 662.448 421.326 655.905 421.326 655.905 424.942 661.773 424.942 661.773 427.058 655.905 427.058 655.905 430.674 662.448 430.674 662.448 432.808 653.554 432.808ZM614.855 419.211 617.206 419.211 617.206 432.808 614.855 432.808ZM814.047 419.019C815.366 419.019 816.456 419.348 817.316 420.006 818.176 420.664 818.606 421.73 818.606 423.205L816.237 423.205C816.25 422.399 816.057 421.839 815.661 421.527 815.264 421.214 814.726 421.058 814.047 421.058 813.454 421.058 812.987 421.189 812.648 421.451 812.308 421.712 812.139 422.066 812.139 422.511 812.139 422.855 812.249 423.148 812.469 423.391 812.689 423.633 812.972 423.84 813.318 424.011 813.665 424.182 814.156 424.395 814.791 424.649 815.723 425.023 816.446 425.345 816.962 425.615 817.477 425.885 817.946 426.29 818.368 426.828 818.789 427.367 819 428.056 819 428.894 819 429.71 818.812 430.426 818.436 431.039 818.06 431.653 817.526 432.127 816.834 432.461 816.142 432.795 815.35 432.962 814.46 432.962 813.595 432.962 812.774 432.806 811.997 432.495 811.22 432.184 810.577 431.67 810.066 430.954 809.556 430.238 809.3 429.25 809.3 427.99L811.689 427.99C811.689 429.028 811.947 429.761 812.462 430.187 812.978 430.614 813.65 430.827 814.478 430.827 815.13 430.827 815.646 430.674 816.025 430.367 816.404 430.061 816.593 429.634 816.593 429.086 816.593 428.677 816.474 428.337 816.236 428.064 815.999 427.792 815.699 427.57 815.336 427.397 814.974 427.224 814.521 427.002 813.976 426.732 812.99 426.419 812.234 426.127 811.709 425.855 811.184 425.584 810.726 425.191 810.336 424.676 809.946 424.162 809.75 423.504 809.75 422.703 809.75 421.565 810.145 420.667 810.934 420.008 811.724 419.349 812.761 419.019 814.047 419.019ZM769.869 419.019C771.13 419.019 772.226 419.307 773.158 419.883 774.09 420.458 774.804 421.272 775.298 422.323 775.793 423.374 776.041 424.6 776.041 426 776.041 427.407 775.792 428.639 775.296 429.694 774.799 430.749 774.086 431.564 773.155 432.138 772.225 432.713 771.13 433 769.869 433 768.606 433 767.51 432.713 766.579 432.138 765.649 431.564 764.936 430.75 764.441 429.697 763.945 428.644 763.697 427.412 763.697 426 763.697 424.596 763.944 423.369 764.438 422.32 764.932 421.271 765.645 420.458 766.577 419.883 767.509 419.307 768.606 419.019 769.869 419.019ZM802.961 419C803.901 419 804.787 419.206 805.619 419.618 806.45 420.03 807.128 420.632 807.651 421.424 808.173 422.216 808.449 423.225 808.477 424.451L806.276 424.451C806.156 423.361 805.811 422.545 805.24 422.004 804.67 421.463 803.916 421.192 802.98 421.192 801.815 421.192 800.897 421.612 800.224 422.452 799.552 423.292 799.215 424.449 799.215 425.923 799.215 427.447 799.559 428.642 800.245 429.508 800.931 430.374 801.855 430.808 803.018 430.808 803.582 430.808 804.1 430.678 804.57 430.42 805.04 430.162 805.427 429.796 805.731 429.321 806.034 428.847 806.214 428.25 806.27 427.53L808.477 427.53C808.436 428.765 808.156 429.781 807.638 430.576 807.119 431.371 806.446 431.974 805.617 432.384 804.788 432.795 803.909 433 802.98 433 801.704 433 800.61 432.702 799.697 432.106 798.784 431.51 798.09 430.684 797.615 429.627 797.14 428.571 796.902 427.362 796.902 426 796.902 424.633 797.136 423.422 797.603 422.368 798.071 421.314 798.764 420.489 799.683 419.893 800.602 419.298 801.695 419 802.961 419ZM733.446 419C734.386 419 735.272 419.206 736.104 419.618 736.936 420.03 737.613 420.632 738.136 421.424 738.659 422.216 738.934 423.225 738.962 424.451L736.761 424.451C736.641 423.361 736.296 422.545 735.725 422.004 735.155 421.463 734.401 421.192 733.465 421.192 732.3 421.192 731.382 421.612 730.709 422.452 730.037 423.292 729.701 424.449 729.701 425.923 729.701 427.447 730.044 428.642 730.73 429.508 731.416 430.374 732.34 430.808 733.503 430.808 734.067 430.808 734.585 430.678 735.055 430.42 735.526 430.162 735.912 429.796 736.216 429.321 736.519 428.847 736.699 428.25 736.755 427.53L738.962 427.53C738.921 428.765 738.641 429.781 738.123 430.576 737.604 431.371 736.931 431.974 736.102 432.384 735.273 432.795 734.394 433 733.465 433 732.189 433 731.095 432.702 730.182 432.106 729.269 431.51 728.575 430.684 728.1 429.627 727.625 428.571 727.387 427.362 727.387 426 727.387 424.633 727.621 423.422 728.088 422.368 728.556 421.314 729.249 420.489 730.168 419.893 731.087 419.298 732.18 419 733.446 419ZM625.621 419C626.711 419 627.692 419.216 628.562 419.647 629.432 420.079 630.11 420.685 630.596 421.467 631.081 422.248 631.324 423.211 631.324 424.355L629.076 424.355C629.023 423.257 628.681 422.452 628.051 421.941 627.422 421.429 626.605 421.173 625.603 421.173 624.317 421.173 623.353 421.618 622.709 422.507 622.066 423.397 621.744 424.548 621.744 425.962 621.744 427.387 622.063 428.548 622.701 429.444 623.339 430.341 624.306 430.789 625.603 430.789 626.643 430.789 627.483 430.533 628.124 430.022 628.765 429.51 629.086 428.829 629.086 427.978L625.411 427.978 625.411 425.997 631.324 425.997 631.324 427.782C631.324 428.803 631.076 429.707 630.581 430.493 630.085 431.28 629.404 431.888 628.538 432.317 627.672 432.747 626.688 432.962 625.584 432.962 624.255 432.962 623.125 432.648 622.195 432.02 621.264 431.393 620.568 430.55 620.106 429.493 619.643 428.436 619.412 427.259 619.412 425.962 619.412 424.671 619.646 423.503 620.113 422.456 620.58 421.409 621.279 420.571 622.211 419.943 623.143 419.314 624.279 419 625.621 419Z" fill="url(#fill1)" fill-rule="evenodd"/></g></svg>