<svg width="282" height="64" xmlns="http://www.w3.org/2000/svg" xmlns:xlink="http://www.w3.org/1999/xlink" overflow="hidden"><defs><clipPath id="clip0"><rect x="500" y="320" width="282" height="64"/></clipPath></defs><g clip-path="url(#clip0)" transform="translate(-500 -320)"><path d="M515.825 358.602 515.825 368.848 524.213 368.848C525.906 368.823 527.245 368.345 528.231 367.414 529.217 366.483 529.721 365.245 529.742 363.701 529.721 362.18 529.217 360.956 528.231 360.029 527.245 359.103 525.906 358.627 524.213 358.602ZM675.566 349.965C672.706 350.024 670.39 350.966 668.619 352.79 666.847 354.614 665.935 356.967 665.883 359.85 665.937 362.745 666.854 365.106 668.631 366.932 669.965 368.302 671.598 369.175 673.532 369.55L675.566 369.759 677.599 369.55C679.533 369.174 681.167 368.301 682.5 366.931 684.278 365.104 685.194 362.742 685.249 359.845 685.194 356.965 684.278 354.613 682.5 352.789 680.722 350.966 678.411 350.024 675.566 349.965ZM758.418 348.43C756.237 348.439 754.417 349.014 752.961 350.155 751.504 351.296 750.468 352.951 749.852 355.118L767.337 355.118C766.676 352.939 765.588 351.281 764.075 350.145 762.561 349.009 760.676 348.437 758.418 348.43ZM548.31 338.137 563.192 338.137 563.192 381.575 548.31 381.575ZM515.826 337.336 515.826 347.146 523.629 347.146C525.259 347.124 526.533 346.672 527.451 345.79 528.368 344.907 528.834 343.724 528.85 342.241L528.849 342.241C528.834 340.757 528.367 339.574 527.45 338.692 526.532 337.81 525.259 337.358 523.628 337.336ZM673.573 336.782C676.13 336.792 678.523 337.2 680.753 338.006 682.983 338.813 684.995 339.961 686.789 341.451L688.311 338.091 699.403 338.092 699.403 381.53 687.899 381.53 686.624 378.461C684.845 379.91 682.856 381.026 680.655 381.81 678.455 382.594 676.094 382.991 673.573 383 666.845 382.878 661.415 380.701 657.284 376.469 653.152 372.238 651.027 366.685 650.909 359.81 651.027 352.963 653.152 347.442 657.284 343.249 661.415 339.056 666.845 336.901 673.573 336.782ZM625.785 336.781C631.953 336.861 637.084 338.625 641.177 342.072 645.27 345.519 647.77 350.171 648.676 356.029L634.17 356.029C633.514 354.234 632.437 352.816 630.941 351.775 629.444 350.735 627.71 350.203 625.739 350.181 623.076 350.23 620.929 351.133 619.298 352.889 617.666 354.645 616.827 356.963 616.781 359.844 616.83 362.728 617.675 365.062 619.315 366.846 620.955 368.629 623.096 369.547 625.739 369.599 627.763 369.577 629.519 369.006 631.008 367.883 632.497 366.761 633.562 365.219 634.203 363.257L648.836 363.257C647.897 369.241 645.359 374.007 641.221 377.553 637.083 381.099 631.922 382.915 625.739 383L625.74 382.998C618.679 382.872 612.967 380.686 608.603 376.44 604.24 372.194 601.994 366.647 601.866 359.797 601.99 352.956 604.232 347.439 608.592 343.247 612.951 339.055 618.682 336.9 625.785 336.781ZM758.419 336.714C763.098 336.758 767.201 337.778 770.727 339.774 774.254 341.77 777.006 344.474 778.984 347.886 780.962 351.297 781.967 355.15 782 359.444L781.999 359.446C781.994 360.75 781.891 362.071 781.692 363.409L749.589 363.409C750.093 365.906 751.099 367.79 752.608 369.061 754.117 370.332 756.054 370.97 758.419 370.973 760.178 370.963 761.738 370.601 763.098 369.889 764.458 369.178 765.506 368.18 766.241 366.897L781.05 366.897C779.454 371.905 776.658 375.828 772.661 378.666 768.664 381.504 763.917 382.949 758.419 383 753.884 382.96 749.857 381.94 746.339 379.942 742.821 377.943 740.052 375.207 738.032 371.733 736.011 368.259 734.981 364.289 734.941 359.823 735.072 353.031 737.289 347.514 741.593 343.272 745.898 339.03 751.506 336.844 758.419 336.714ZM745.297 326.697 745.297 329.646 745.819 329.646C746.298 329.641 746.673 329.508 746.945 329.246 747.217 328.984 747.356 328.626 747.361 328.172 747.356 327.718 747.217 327.36 746.945 327.098 746.673 326.836 746.298 326.702 745.819 326.697ZM770.763 326.53C770.279 326.537 769.895 326.687 769.611 326.982 769.326 327.276 769.18 327.675 769.173 328.178 769.18 328.678 769.326 329.074 769.611 329.367 769.895 329.66 770.279 329.809 770.763 329.816 771.246 329.809 771.63 329.66 771.914 329.367 772.199 329.074 772.345 328.678 772.351 328.178 772.345 327.675 772.199 327.276 771.914 326.982 771.63 326.687 771.246 326.537 770.763 326.53ZM585.338 325.435 588.37 325.435 588.37 338.138 599.257 338.138 599.257 349.634 588.771 349.634 588.771 363.477C588.783 365.048 589.225 366.269 590.098 367.142 590.97 368.015 592.198 368.458 593.781 368.471L599.497 368.471 599.497 381.576 589.251 381.576C584.431 381.532 580.676 380.151 577.987 377.433 575.298 374.714 573.932 370.919 573.889 366.047L573.889 349.634 565.975 349.634 565.975 346.144ZM501 325.265 526.315 325.265C531.378 325.346 535.485 326.707 538.636 329.349 541.786 331.991 543.408 335.431 543.504 339.67 543.476 342.217 542.83 344.549 541.566 346.666 540.302 348.783 538.586 350.508 536.417 351.841L536.419 351.842C539.087 353.13 541.18 354.96 542.696 357.333 544.213 359.706 544.985 362.444 545.013 365.548 544.903 370.207 543.165 374.018 539.802 376.983 536.439 379.948 532.115 381.479 526.832 381.577L501 381.577ZM757.368 324.503 759.772 324.503 761.266 328.037 762.773 324.503 765.177 324.503 766.243 331.842 763.818 331.842 763.389 328.137 761.685 331.842 760.849 331.842 759.148 328.142 758.737 331.842 756.291 331.842ZM750.666 324.503 755.663 324.503 755.663 326.467 753.059 326.467 753.059 327.275 755.391 327.275 755.391 329.071 753.059 329.071 753.059 329.879 755.715 329.879 755.715 331.842 750.666 331.842ZM742.852 324.503 745.986 324.503C747.149 324.519 748.079 324.858 748.774 325.518 749.468 326.178 749.825 327.063 749.842 328.173 749.825 329.273 749.468 330.155 748.774 330.82 748.079 331.484 747.149 331.825 745.986 331.842L742.852 331.842ZM770.762 324.293C772.032 324.309 773.041 324.664 773.789 325.358 774.536 326.052 774.919 326.991 774.936 328.173 774.919 329.355 774.536 330.293 773.789 330.987 773.041 331.682 772.032 332.037 770.762 332.053 769.491 332.037 768.482 331.682 767.734 330.987 766.987 330.293 766.604 329.355 766.587 328.173 766.604 326.991 766.987 326.052 767.734 325.358 768.482 324.664 769.491 324.309 770.762 324.293ZM722.856 320.887 733.252 320.887 733.252 332.357 726.675 332.357C725.561 332.365 724.697 332.677 724.082 333.291 723.468 333.906 723.156 334.774 723.147 335.895L723.147 338.85 733.332 338.85 733.332 350.596 723.637 350.596 723.637 381.575 708.756 381.575 708.756 350.596 701.606 350.596 701.572 338.849 708.938 338.849 708.938 334.683C708.945 330.3 710.119 326.913 712.461 324.521 714.802 322.129 718.267 320.918 722.856 320.887ZM548.424 320 563.077 320 563.077 332.701 548.424 332.701Z" fill="#1E90FF" fill-rule="evenodd"/></g></svg>